<?xml version="1.0" encoding="utf-8"?>
<!-- Generator: Adobe Illustrator 20.1.0, SVG Export Plug-In . SVG Version: 6.00 Build 0)  -->
<svg version="1.1" id="Layer_1" xmlns="http://www.w3.org/2000/svg" xmlns:xlink="http://www.w3.org/1999/xlink" x="0px" y="0px"
	 viewBox="0 0 848.6 958.8" style="enable-background:new 0 0 848.6 958.8;" xml:space="preserve">
<style type="text/css">
	.st0{fill:#45A695;}
	.st1{fill:#56B1CF;}
	.st2{fill:#FFD741;}
	.st3{fill:#223F7D;}
	.st4{fill:#F79332;}
	.st5{fill:#1B74B3;}
	.st6{fill:#A52860;}
	.st7{fill:#F15B39;}
</style>
<g>
	<path class="st0" d="M247.4,260.9h0.2L577.6,26.5C526.7,8.9,472.1,0,413.6,0H244.6v258L247.4,260.9z"/>
	<path class="st1" d="M401.9,260.9c33.2,0,61.2,4.5,83.8,13.5c22.6,9,40.8,21.9,54.6,38.8C554.1,330,564,350.3,570,374
		c6,23.7,9,50.2,9,79.6c0,0.4,0,0.8,0,1.2h269.3c-1.6-71.6-12.5-134.6-32.7-188.8c-21.9-59.1-52.4-108.3-91.3-147.7
		c-38.9-39.4-85-68.9-138.3-88.6c-2.8-1-5.6-2-8.5-3L247.5,260.9H401.9z"/>
	<polygon class="st2" points="244.6,0 3.3,0 244.6,258 	"/>
	<path class="st3" d="M244.6,958.8h168.9c73.4,0,137.2-12.3,191.3-36.9c19.6-8.9,38-19,55.3-30.4L244.6,669V958.8z"/>
	<polygon class="st4" points="244.6,260.9 244.6,258 3.3,0 0,0 0,436.7 244.6,263 	"/>
	<path class="st5" d="M579,454.7c-0.1,32.5-4.4,98.4-12.9,120.4c-8.6,22.3-20.1,40.4-34.4,54.3c-14.3,13.9-30.7,23.8-49,29.8
		c-18.4,6-37.3,9-56.8,9H244.6v0.9l415.5,222.5c30.4-19.9,57.2-43.6,80.3-71c36.3-43,63.3-94,81.2-153.1
		c17.9-59.1,26.9-123.5,26.9-193.4c0-6.5-0.1-12.9-0.2-19.3H579z"/>
	<polygon class="st6" points="0,538 0,958.8 244.6,958.8 244.6,669 	"/>
	<polygon class="st7" points="244.6,668.1 244.6,263 0,436.7 0,538 244.6,669 	"/>
</g>
</svg>
